<?xml version="1.0" encoding="utf-8"?>
<!-- Generator: Adobe Illustrator 24.1.2, SVG Export Plug-In . SVG Version: 6.00 Build 0)  -->
<svg version="1.1" id="Calque_1" xmlns="http://www.w3.org/2000/svg" xmlns:xlink="http://www.w3.org/1999/xlink" x="0px" y="0px"
	 viewBox="0 0 210 297" style="enable-background:new 0 0 210 297;" xml:space="preserve">
<style type="text/css">
	.st0{clip-path:url(#SVGID_2_);fill:#FFFFFF;stroke:#3C3C3B;stroke-width:1.1412;stroke-miterlimit:10;}
	.st1{clip-path:url(#SVGID_2_);fill:#FAB51C;}
	.st2{clip-path:url(#SVGID_2_);fill:#E30917;}
	.st3{clip-path:url(#SVGID_2_);}
	.st4{fill:#FFFFFF;}
	.st5{font-family:'Arial-BoldMT';}
	.st6{font-size:19.4007px;}
	.st7{fill:#3C3C3B;}
	.st8{font-size:27.3892px;}
	.st9{clip-path:url(#SVGID_2_);fill:none;stroke:#3C3C3B;stroke-width:3.4237;stroke-miterlimit:10;}
	.st10{clip-path:url(#SVGID_2_);fill:none;stroke:#000000;stroke-width:9.1297;stroke-miterlimit:10;}
	
		.st11{clip-path:url(#SVGID_2_);fill:none;stroke:#000000;stroke-width:9.1297;stroke-miterlimit:10;stroke-dasharray:13.7333,13.7333;}
</style>
<g>
	<g>
		<defs>
			<polygon id="SVGID_1_" points="-87,317.25 295.81,317.25 295.81,-20 -87,-20 -87,317.25 			"/>
		</defs>
		<clipPath id="SVGID_2_">
			<use xlink:href="#SVGID_1_"  style="overflow:visible;"/>
		</clipPath>
		<polygon class="st0" points="290.38,312.39 -82.42,312.39 -82.42,-15.43 290.38,-15.43 290.38,312.39 		"/>
		<polygon class="st1" points="290.95,311.25 -83.85,311.25 -83.85,-15.71 290.95,-15.71 290.95,311.25 		"/>
		<polygon class="st2" points="103.84,148.34 41.75,148.34 41.75,93.84 103.84,93.84 103.84,148.34 		"/>
		<g class="st3">
			<text transform="matrix(1.0028 0 0 1 54.887 126.6702)"><tspan x="0" y="0" class="st4 st5 st6">10</tspan><tspan x="21.66" y="0" class="st4 st5 st6">0</tspan></text>
		</g>
		<g class="st3">
			<text transform="matrix(1.0028 0 0 1 84.8089 246.1389)"><tspan x="0" y="0" class="st7 st5 st8">X</tspan><tspan x="18.27" y="0" class="st7 st5 st8"> </tspan><tspan x="25.96" y="0" class="st7 st5 st8">=</tspan><tspan x="41.95" y="0" class="st7 st5 st8"> </tspan><tspan x="49.65" y="0" class="st7 st5 st8">98</tspan><tspan x="79.89" y="0" class="st7 st5 st8">,</tspan><tspan x="87.58" y="0" class="st7 st5 st8">5</tspan></text>
		</g>
		<line class="st9" x1="85.81" y1="218.24" x2="103.26" y2="218.24"/>
		<polyline class="st10" points="290.38,305.25 290.38,312.1 283.51,312.1 		"/>
		<line class="st11" x1="270.07" y1="312.1" x2="-69.26" y2="312.1"/>
		<polyline class="st10" points="-75.84,312.1 -82.71,312.1 -82.71,305.25 		"/>
		<line class="st11" x1="-82.71" y1="291.56" x2="-82.71" y2="-1.73"/>
		<polyline class="st10" points="-82.71,-8.58 -82.71,-15.43 -75.84,-15.43 		"/>
		<line class="st11" x1="-62.39" y1="-15.43" x2="276.93" y2="-15.43"/>
		<polyline class="st10" points="283.51,-15.43 290.38,-15.43 290.38,-8.58 		"/>
		<line class="st11" x1="290.38" y1="4.83" x2="290.38" y2="298.41"/>
	</g>
</g>
</svg>
