<?xml version="1.0" encoding="utf-8"?>
<!-- Generator: Adobe Illustrator 24.1.2, SVG Export Plug-In . SVG Version: 6.00 Build 0)  -->
<svg version="1.1" id="Calque_1" xmlns="http://www.w3.org/2000/svg" xmlns:xlink="http://www.w3.org/1999/xlink" x="0px" y="0px"
	 viewBox="0 0 210 297" style="enable-background:new 0 0 210 297;" xml:space="preserve">
<style type="text/css">
	.st0{clip-path:url(#SVGID_2_);fill:#FFFFFF;}
	.st1{clip-path:url(#SVGID_2_);fill:#FAB51C;}
	.st2{clip-path:url(#SVGID_2_);fill:#E30917;}
	.st3{clip-path:url(#SVGID_2_);}
	.st4{fill:#FFFFFF;}
	.st5{font-family:'Arial-BoldMT';}
	.st6{font-size:19.6575px;}
	.st7{font-family:'ArialMT';}
	.st8{font-size:21.9701px;}
	.st9{clip-path:url(#SVGID_2_);fill:none;stroke:#3C3C3B;stroke-width:1.1563;stroke-miterlimit:10;}
</style>
<g>
	<g>
		<defs>
			<polygon id="SVGID_1_" points="-85,316 295.05,316 295.05,-17 -85,-17 -85,316 			"/>
		</defs>
		<clipPath id="SVGID_2_">
			<use xlink:href="#SVGID_1_"  style="overflow:visible;"/>
		</clipPath>
		<polygon class="st0" points="293.89,315.43 -83.84,315.43 -83.84,-16.72 293.89,-16.72 293.89,315.43 		"/>
		<polygon class="st1" points="168.08,204.42 -20.35,204.42 -20.35,39.65 168.08,39.65 168.08,204.42 		"/>
		<polygon class="st2" points="104.88,149.21 41.97,149.21 41.97,93.99 104.88,93.99 104.88,149.21 		"/>
		<g class="st3">
			<text transform="matrix(1.0028 0 0 1 55.287 127.2625)"><tspan x="0" y="0" class="st4 st5 st6">10</tspan><tspan x="21.94" y="0" class="st4 st5 st6">0</tspan></text>
		</g>
		<g class="st3">
			<text transform="matrix(1.0028 0 0 1 -69.5411 20.6531)" class="st7 st8">1</text>
		</g>
		<g class="st3">
			<text transform="matrix(1.0028 0 0 1 -58.6505 20.6531)"><tspan x="0" y="0" class="st7 st8">1</tspan><tspan x="12.15" y="0" class="st7 st8">0</tspan></text>
		</g>
		<g class="st3">
			<text transform="matrix(1.0028 0 0 1 -70.377 74.9343)"><tspan x="0" y="0" class="st7 st8">10</tspan><tspan x="24.31" y="0" class="st7 st8">6</tspan></text>
		</g>
		<g class="st3">
			<text transform="matrix(1.0028 0 0 1 -70.377 129.2312)"><tspan x="0" y="0" class="st7 st8">10</tspan><tspan x="24.31" y="0" class="st7 st8">7</tspan></text>
		</g>
		<g class="st3">
			<text transform="matrix(1.0028 0 0 1 -0.0489 129.2312)"><tspan x="0" y="0" class="st7 st8">9</tspan><tspan x="12.15" y="0" class="st7 st8">9</tspan></text>
		</g>
		<g class="st3">
			<text transform="matrix(1.0028 0 0 1 -6.3223 74.9343)"><tspan x="0" y="0" class="st7 st8">10</tspan><tspan x="24.31" y="0" class="st7 st8">0</tspan></text>
		</g>
		<g class="st3">
			<text transform="matrix(1.0028 0 0 1 -6.3223 20.6531)"><tspan x="0" y="0" class="st7 st8">10</tspan><tspan x="24.31" y="0" class="st7 st8">7</tspan></text>
		</g>
		<g class="st3">
			<text transform="matrix(1.0028 0 0 1 54.5214 20.6531)"><tspan x="0" y="0" class="st7 st8">10</tspan><tspan x="24.31" y="0" class="st7 st8">9</tspan></text>
		</g>
		<g class="st3">
			<text transform="matrix(1.0028 0 0 1 118.5761 20.6531)"><tspan x="0" y="0" class="st7 st8">10</tspan><tspan x="24.31" y="0" class="st7 st8">1</tspan></text>
		</g>
		<g class="st3">
			<text transform="matrix(1.0028 0 0 1 182.6386 20.6531)"><tspan x="0" y="0" class="st7 st8">10</tspan><tspan x="24.31" y="0" class="st7 st8">2</tspan></text>
		</g>
		<g class="st3">
			<text transform="matrix(1.0028 0 0 1 249.9902 20.6375)"><tspan x="0" y="0" class="st7 st8">9</tspan><tspan x="12.15" y="0" class="st7 st8">3</tspan></text>
		</g>
		<g class="st3">
			<text transform="matrix(1.0028 0 0 1 124.8652 74.9343)"><tspan x="0" y="0" class="st7 st8">9</tspan><tspan x="12.15" y="0" class="st7 st8">8</tspan></text>
		</g>
		<g class="st3">
			<text transform="matrix(1.0028 0 0 1 182.6386 74.9343)"><tspan x="0" y="0" class="st7 st8">10</tspan><tspan x="24.31" y="0" class="st7 st8">2</tspan></text>
		</g>
		<g class="st3">
			<text transform="matrix(1.0028 0 0 1 250.373 74.9343)"><tspan x="0" y="0" class="st7 st8">9</tspan><tspan x="12.15" y="0" class="st7 st8">5</tspan></text>
		</g>
		<g class="st3">
			<text transform="matrix(1.0028 0 0 1 124.8652 129.2312)"><tspan x="0" y="0" class="st7 st8">9</tspan><tspan x="12.15" y="0" class="st7 st8">0</tspan></text>
		</g>
		<g class="st3">
			<text transform="matrix(1.0028 0 0 1 188.9198 129.2312)"><tspan x="0" y="0" class="st7 st8">9</tspan><tspan x="12.15" y="0" class="st7 st8">9</tspan></text>
		</g>
		<g class="st3">
			<text transform="matrix(1.0028 0 0 1 243.7011 129.2468)"><tspan x="0" y="0" class="st7 st8">10</tspan><tspan x="24.31" y="0" class="st7 st8">1</tspan></text>
		</g>
		<g class="st3">
			<text transform="matrix(1.0028 0 0 1 60.8105 74.9343)"><tspan x="0" y="0" class="st7 st8">9</tspan><tspan x="12.15" y="0" class="st7 st8">9</tspan></text>
		</g>
		<g class="st3">
			<text transform="matrix(1.0028 0 0 1 -64.1036 183.5203)"><tspan x="0" y="0" class="st7 st8">8</tspan><tspan x="12.15" y="0" class="st7 st8">4</tspan></text>
		</g>
		<g class="st3">
			<text transform="matrix(1.0028 0 0 1 -6.3223 183.5203)"><tspan x="0" y="0" class="st7 st8">10</tspan><tspan x="24.31" y="0" class="st7 st8">0</tspan></text>
		</g>
		<g class="st3">
			<text transform="matrix(1.0028 0 0 1 124.8652 183.5203)"><tspan x="0" y="0" class="st7 st8">9</tspan><tspan x="12.15" y="0" class="st7 st8">4</tspan></text>
		</g>
		<g class="st3">
			<text transform="matrix(1.0028 0 0 1 182.6386 183.5203)"><tspan x="0" y="0" class="st7 st8">10</tspan><tspan x="24.31" y="0" class="st7 st8">2</tspan></text>
		</g>
		<g class="st3">
			<text transform="matrix(1.0028 0 0 1 244.0839 183.5437)"><tspan x="0" y="0" class="st7 st8">10</tspan><tspan x="24.31" y="0" class="st7 st8">3</tspan></text>
		</g>
		<g class="st3">
			<text transform="matrix(1.0028 0 0 1 60.8105 183.5203)"><tspan x="0" y="0" class="st7 st8">9</tspan><tspan x="12.15" y="0" class="st7 st8">7</tspan></text>
		</g>
		<g class="st3">
			<text transform="matrix(1.0028 0 0 1 -70.377 241.0125)"><tspan x="0" y="0" class="st7 st8">10</tspan><tspan x="24.31" y="0" class="st7 st8">1</tspan></text>
		</g>
		<g class="st3">
			<text transform="matrix(1.0028 0 0 1 -0.0489 241.0125)"><tspan x="0" y="0" class="st7 st8">9</tspan><tspan x="12.15" y="0" class="st7 st8">6</tspan></text>
		</g>
		<g class="st3">
			<text transform="matrix(1.0028 0 0 1 124.8652 241.0125)"><tspan x="0" y="0" class="st7 st8">8</tspan><tspan x="12.15" y="0" class="st7 st8">7</tspan></text>
		</g>
		<g class="st3">
			<text transform="matrix(1.0028 0 0 1 188.9198 241.0125)"><tspan x="0" y="0" class="st7 st8">9</tspan><tspan x="12.15" y="0" class="st7 st8">6</tspan></text>
		</g>
		<g class="st3">
			<text transform="matrix(1.0028 0 0 1 250.373 241.0281)"><tspan x="0" y="0" class="st7 st8">9</tspan><tspan x="12.15" y="0" class="st7 st8">2</tspan></text>
		</g>
		<g class="st3">
			<text transform="matrix(1.0028 0 0 1 60.8105 241.0125)"><tspan x="0" y="0" class="st7 st8">9</tspan><tspan x="12.15" y="0" class="st7 st8">2</tspan></text>
		</g>
		<g class="st3">
			<text transform="matrix(1.0028 0 0 1 -70.377 292.1062)"><tspan x="0" y="0" class="st7 st8">10</tspan><tspan x="24.31" y="0" class="st7 st8">0</tspan></text>
		</g>
		<g class="st3">
			<text transform="matrix(1.0028 0 0 1 -0.0489 292.1062)"><tspan x="0" y="0" class="st7 st8">9</tspan><tspan x="12.15" y="0" class="st7 st8">9</tspan></text>
		</g>
		<g class="st3">
			<text transform="matrix(1.0028 0 0 1 118.5761 292.1062)"><tspan x="0" y="0" class="st7 st8">10</tspan><tspan x="24.31" y="0" class="st7 st8">0</tspan></text>
		</g>
		<g class="st3">
			<text transform="matrix(1.0028 0 0 1 188.9198 292.1062)"><tspan x="0" y="0" class="st7 st8">9</tspan><tspan x="12.15" y="0" class="st7 st8">9</tspan></text>
		</g>
		<g class="st3">
			<text transform="matrix(1.0028 0 0 1 243.7011 292.1453)"><tspan x="0" y="0" class="st7 st8">10</tspan><tspan x="24.31" y="0" class="st7 st8">2</tspan></text>
		</g>
		<g class="st3">
			<text transform="matrix(1.0028 0 0 1 60.8105 292.1062)"><tspan x="0" y="0" class="st7 st8">8</tspan><tspan x="12.15" y="0" class="st7 st8">5</tspan></text>
		</g>
		<polygon class="st9" points="-84.13,-16.44 293.89,-16.44 293.89,314.85 -84.13,314.85 -84.13,-16.44 		"/>
		<line class="st9" x1="-84.13" y1="259.64" x2="293.89" y2="259.64"/>
		<line class="st9" x1="-84.13" y1="204.42" x2="293.89" y2="204.42"/>
		<line class="st9" x1="-84.13" y1="149.21" x2="293.89" y2="149.21"/>
		<line class="st9" x1="-84.13" y1="93.99" x2="293.89" y2="93.99"/>
		<line class="st9" x1="-84.13" y1="38.78" x2="293.89" y2="38.78"/>
		<line class="st9" x1="230.99" y1="-16.44" x2="230.99" y2="314.85"/>
		<line class="st9" x1="168.08" y1="-16.44" x2="168.08" y2="314.85"/>
		<line class="st9" x1="104.88" y1="-16.44" x2="104.88" y2="314.85"/>
		<line class="st9" x1="41.97" y1="-16.44" x2="41.97" y2="314.85"/>
		<line class="st9" x1="-20.93" y1="-16.44" x2="-20.93" y2="314.85"/>
	</g>
</g>
</svg>
