<svg id="Calque_1" data-name="Calque 1" xmlns="http://www.w3.org/2000/svg" xmlns:xlink="http://www.w3.org/1999/xlink" viewBox="0 0 379.75 334.05"><defs><style>.cls-1,.cls-15,.cls-16,.cls-17{fill:none;}.cls-2{clip-path:url(#clip-path);}.cls-3,.cls-6{fill:#fff;}.cls-15,.cls-3{stroke:#3c3c3b;}.cls-15,.cls-16,.cls-17,.cls-3{stroke-miterlimit:10;}.cls-3{stroke-width:1.16px;}.cls-4{fill:#fab51c;}.cls-5{fill:#e30917;}.cls-6{font-size:19.7px;}.cls-11,.cls-6{font-family:Arial-BoldMT, Arial;font-weight:700;}.cls-7{letter-spacing:0em;}.cls-8{letter-spacing:0em;}.cls-9{letter-spacing:0em;}.cls-10{letter-spacing:0em;}.cls-11{font-size:27.81px;fill:#3c3c3b;}.cls-12{letter-spacing:0em;}.cls-13{letter-spacing:0em;}.cls-14{letter-spacing:0em;}.cls-15{stroke-width:3.48px;}.cls-16,.cls-17{stroke:#000;stroke-width:9.27px;}.cls-17{stroke-dasharray:13.95 13.95;}</style><clipPath id="clip-path" transform="translate(85.29 18.3)"><polygon class="cls-1" points="-85 316.63 295.05 316.63 295.05 -18 -85 -18 -85 316.63 -85 316.63"/></clipPath></defs><g class="cls-2"><polygon class="cls-3" points="379.17 333.47 0.58 333.47 0.58 0.58 379.17 0.58 379.17 333.47 379.17 333.47"/><polygon class="cls-4" points="253.07 222.21 64.21 222.21 64.21 57.08 253.07 57.08 253.07 222.21 253.07 222.21"/><polygon class="cls-5" points="189.73 166.88 126.68 166.88 126.68 111.54 189.73 111.54 189.73 166.88 189.73 166.88"/><text class="cls-6" transform="translate(125.47 144.88)"><tspan class="cls-7">+</tspan><tspan class="cls-8" x="11.58" y="0"> </tspan><tspan class="cls-9" x="17.08" y="0">2</tspan><tspan class="cls-10" x="28.07" y="0">,</tspan><tspan class="cls-9" x="33.57" y="0">6</tspan><tspan x="44.56" y="0">%</tspan></text><text class="cls-11" transform="translate(96.03 202.46)">X<tspan class="cls-12" x="18.55" y="0"> </tspan><tspan x="26.36" y="0">=</tspan><tspan class="cls-12" x="42.6" y="0"> </tspan><tspan class="cls-13" x="50.41" y="0">97</tspan><tspan class="cls-12" x="81.13" y="0">,</tspan><tspan class="cls-14" x="88.94" y="0">4</tspan></text><line class="cls-15" x1="97.04" y1="174.12" x2="114.77" y2="174.12"/><polyline class="cls-16" points="253.65 216.13 253.65 223.08 246.68 223.08"/><line class="cls-17" x1="233.31" y1="223.08" x2="79.03" y2="223.08"/><polyline class="cls-16" points="72.35 223.08 65.37 223.08 65.37 216.13"/><line class="cls-17" x1="65.37" y1="202.22" x2="65.37" y2="72.14"/><polyline class="cls-16" points="65.37 65.48 65.37 58.52 72.35 58.52"/><line class="cls-17" x1="85.71" y1="58.52" x2="240" y2="58.52"/><polyline class="cls-16" points="246.68 58.52 253.65 58.52 253.65 65.48"/><line class="cls-17" x1="253.65" y1="79.09" x2="253.65" y2="209.18"/></g></svg>