<svg id="Calque_1" data-name="Calque 1" xmlns="http://www.w3.org/2000/svg" viewBox="0 0 64.74 98.24"><defs><style>.cls-1{fill:#fff;}</style></defs><path class="cls-1" d="M40.5,95a5.33,5.33,0,0,0,5.24,4.11h8.52a5.5,5.5,0,0,0,5.22-4l.62-2.29a7.07,7.07,0,0,0,5-6.75V82.53a5,5,0,0,0-4.69-4.91H39.77a4.93,4.93,0,0,0-4.91,4.91v3.53a7,7,0,0,0,5,6.75Zm-2.64-9V82.53a1.92,1.92,0,0,1,1.91-1.91H60.3a2,2,0,0,1,1.84,1.91v3.53a4,4,0,0,1-3.45,4,1.5,1.5,0,0,0-1.25,1.1l-.85,3.14a2.52,2.52,0,0,1-2.33,1.83H45.74a2.34,2.34,0,0,1-2.33-1.81l-.85-3.17a1.5,1.5,0,0,0-1.25-1.1,4,4,0,0,1-3.45-4ZM50,24.21a9,9,0,1,0,9,9A9,9,0,0,0,50,24.21Zm0,15.07a6,6,0,1,1,6-6A6,6,0,0,1,50,39.28ZM49.88.87h-.25A32.22,32.22,0,0,0,26.71,55.5a20.47,20.47,0,0,1,5.46,11,9.36,9.36,0,0,0,9.35,8h17a9.54,9.54,0,0,0,9.35-8,20,20,0,0,1,5.45-11A32.23,32.23,0,0,0,49.88.87ZM71.13,53.43a23,23,0,0,0-6.26,12.63,6.51,6.51,0,0,1-6.38,5.45h-17a6.39,6.39,0,0,1-6.39-5.46,23.47,23.47,0,0,0-6.26-12.63A29.22,29.22,0,0,1,49.65,3.87h.23A29.23,29.23,0,0,1,71.13,53.43ZM70,27.91l-2.35-.41a19.21,19.21,0,0,0-1.1-2.65l1.37-2a4,4,0,0,0-.45-5.14l-2-2a4.08,4.08,0,0,0-5.14-.45l-2,1.37a18,18,0,0,0-2.65-1.1l-.41-2.35a4,4,0,0,0-4-3.32H48.59a4,4,0,0,0-4,3.32l-.41,2.35a19.21,19.21,0,0,0-2.65,1.1l-2-1.37a4.09,4.09,0,0,0-5.14.44l-2,2a4,4,0,0,0-.45,5.14l1.37,2a18,18,0,0,0-1.1,2.65L30,27.91a4,4,0,0,0-3.32,4v2.77a4,4,0,0,0,3.32,4l2.35.41a18,18,0,0,0,1.1,2.65l-1.37,2a4,4,0,0,0,.45,5.14l2,2a4.08,4.08,0,0,0,5.14.45l2-1.37a19.21,19.21,0,0,0,2.65,1.1l.41,2.35a4,4,0,0,0,4,3.32H51.5a4,4,0,0,0,4-3.32l.41-2.35A19.21,19.21,0,0,0,58.56,50l2,1.37a4.08,4.08,0,0,0,5.14-.45l2-2a4,4,0,0,0,.45-5.14l-1.37-2A18.83,18.83,0,0,0,67.62,39L70,38.59a4,4,0,0,0,3.32-4V31.86A4,4,0,0,0,70,27.91Zm.32,6.73a1,1,0,0,1-.84,1l-3.27.57A1.49,1.49,0,0,0,65,37.29,15.47,15.47,0,0,1,63.46,41a1.51,1.51,0,0,0,.07,1.61l1.91,2.72a1,1,0,0,1-.11,1.3l-2,2a1,1,0,0,1-1.3.11L59.35,46.8a1.51,1.51,0,0,0-1.61-.07A15.25,15.25,0,0,1,54,48.26a1.51,1.51,0,0,0-1.09,1.19l-.57,3.27a1,1,0,0,1-1,.84H48.59a1,1,0,0,1-1-.84L47,49.46a1.51,1.51,0,0,0-1.09-1.19,15.47,15.47,0,0,1-3.71-1.54,1.51,1.51,0,0,0-1.61.07l-2.72,1.91a1,1,0,0,1-1.29-.11l-2-2a1,1,0,0,1-.11-1.3l1.91-2.72A1.5,1.5,0,0,0,36.5,41,15.52,15.52,0,0,1,35,37.29a1.51,1.51,0,0,0-1.19-1.09l-3.27-.57a1,1,0,0,1-.84-1V31.86a1,1,0,0,1,.84-1l3.27-.57A1.51,1.51,0,0,0,35,29.2a15.47,15.47,0,0,1,1.54-3.71,1.51,1.51,0,0,0-.07-1.61l-1.91-2.72a1,1,0,0,1,.11-1.3l2-2a1,1,0,0,1,1.3-.11l2.72,1.91a1.51,1.51,0,0,0,1.61.07A15.47,15.47,0,0,1,46,18.19,1.5,1.5,0,0,0,47,17l.57-3.27a1,1,0,0,1,1-.84h2.77a1,1,0,0,1,1,.84l.6,3.27A1.51,1.51,0,0,0,54,18.23a15.47,15.47,0,0,1,3.71,1.54,1.51,1.51,0,0,0,1.61-.07L62,17.79a1,1,0,0,1,1.29.11l2,2a1,1,0,0,1,.11,1.3l-1.91,2.72a1.51,1.51,0,0,0-.07,1.61A15.35,15.35,0,0,1,65,29.2a1.51,1.51,0,0,0,1.19,1.09l3.27.57a1,1,0,0,1,.84,1Z" transform="translate(-17.64 -0.87)"/></svg>