<?xml version="1.0" encoding="utf-8"?>
<!-- Generator: Adobe Illustrator 16.0.0, SVG Export Plug-In . SVG Version: 6.00 Build 0)  -->
<!DOCTYPE svg PUBLIC "-//W3C//DTD SVG 1.1//EN" "http://www.w3.org/Graphics/SVG/1.1/DTD/svg11.dtd">
<svg version="1.1" id="Calque_1" xmlns="http://www.w3.org/2000/svg" xmlns:xlink="http://www.w3.org/1999/xlink" x="0px" y="0px"
	 width="841.891px" height="595.281px" viewBox="0 0 841.891 595.281" enable-background="new 0 0 841.891 595.281"
	 xml:space="preserve">
<title>thumb-up</title>
<path fill="#395F94" d="M525.119,282.759h89.322c16.43,0,29.734-13.244,29.734-29.764V59.529c0-16.445-13.201-29.765-29.734-29.765
	h-290.11c-20.611,0-37.324,16.52-37.324,37.205c0,8.379,2.753,16.103,7.426,22.323c-20.552,0.074-37.189,16.563-37.189,37.205
	c0,9.465,3.512,18.097,9.346,24.659c-14.153,5.254-24.228,18.796-24.228,34.869c0,9.465,3.512,18.097,9.346,24.659
	c-14.153,5.254-24.229,18.796-24.229,34.869c0,20.552,16.594,37.204,37.324,37.204h89.173
	c-15.61,74.663-8.14,163.702,52.087,163.702c60.229,0,28.782-71.255,52.088-115.528
	C481.455,286.658,525.119,282.759,525.119,282.759L525.119,282.759L525.119,282.759z M614.545,267.877h-74.544V44.646h74.544
	c8.036,0,14.748,6.712,14.748,14.986v193.243c0,8.319-6.607,14.986-14.748,14.986V267.877z M584.647,74.411
	c-8.215,0-14.882,6.667-14.882,14.882s6.667,14.882,14.882,14.882s14.882-6.667,14.882-14.882S592.862,74.411,584.647,74.411
	L584.647,74.411L584.647,74.411z M371.834,267.877H264.58c-12.338,0-22.219-10-22.219-22.322c0-12.412,9.94-22.323,22.219-22.323
	h52.19v-14.882h-37.309c-12.337,0-22.219-10.001-22.219-22.323c0-12.412,9.94-22.323,22.219-22.323h52.191v-14.882h-37.31
	c-12.337,0-22.219-10.001-22.219-22.323c0-12.412,9.941-22.323,22.219-22.323h52.191V89.293h-22.293
	c-12.367,0-22.354-10.001-22.354-22.323c0-12.411,10.001-22.323,22.354-22.323h200.877c0,0,0,193.467,0,223.23
	c-22.323,0-41.759,14.882-41.759,14.882c-13.543,8.453-28.216,21.252-38.173,40.167c-23.305,44.274,3.602,108.653-39.125,108.653
	c-44.05,0-51.313-72.223-37.22-148.82L371.834,267.877L371.834,267.877L371.834,267.877L371.834,267.877z"/>
</svg>
