<?xml version="1.0" encoding="utf-8"?>
<!-- Generator: Adobe Illustrator 16.0.0, SVG Export Plug-In . SVG Version: 6.00 Build 0)  -->
<!DOCTYPE svg PUBLIC "-//W3C//DTD SVG 1.1//EN" "http://www.w3.org/Graphics/SVG/1.1/DTD/svg11.dtd">
<svg version="1.1" id="Calque_1" xmlns="http://www.w3.org/2000/svg" xmlns:xlink="http://www.w3.org/1999/xlink" x="0px" y="0px"
	 width="841.891px" height="595.281px" viewBox="0 0 841.891 595.281" enable-background="new 0 0 841.891 595.281"
	 xml:space="preserve">
<title>thumb-up</title>
<path fill="#395F94" d="M346.535,193.467h-89.322c-16.43,0-29.734,13.244-29.734,29.764v193.466
	c0,16.445,13.201,29.765,29.734,29.765h290.11c20.611,0,37.324-16.52,37.324-37.205c0-8.379-2.753-16.103-7.426-22.323
	c20.552-0.074,37.189-16.563,37.189-37.205c0-9.465-3.512-18.097-9.346-24.659c14.153-5.254,24.228-18.796,24.228-34.869
	c0-9.465-3.512-18.097-9.346-24.659c14.153-5.254,24.229-18.796,24.229-34.869c0-20.552-16.594-37.204-37.324-37.204h-89.173
	c15.61-74.663,8.14-163.702-52.087-163.702c-60.229,0-28.782,71.255-52.088,115.528
	C390.199,189.567,346.535,193.467,346.535,193.467L346.535,193.467L346.535,193.467z M257.109,208.348h74.544v223.23h-74.544
	c-8.036,0-14.748-6.712-14.748-14.986V223.349c0-8.319,6.607-14.986,14.748-14.986V208.348z M287.007,401.814
	c8.215,0,14.882-6.667,14.882-14.882s-6.667-14.882-14.882-14.882s-14.882,6.667-14.882,14.882S278.792,401.814,287.007,401.814
	L287.007,401.814L287.007,401.814z M499.82,208.348h107.254c12.338,0,22.219,10,22.219,22.322c0,12.412-9.94,22.323-22.219,22.323
	h-52.19v14.882h37.309c12.337,0,22.219,10.001,22.219,22.323c0,12.412-9.94,22.323-22.219,22.323h-52.191v14.882h37.31
	c12.337,0,22.219,10.001,22.219,22.323c0,12.412-9.941,22.323-22.219,22.323h-52.191v14.882h22.293
	c12.367,0,22.354,10.001,22.354,22.323c0,12.411-10.001,22.323-22.354,22.323H346.535c0,0,0-193.467,0-223.23
	c22.323,0,41.759-14.882,41.759-14.882c13.543-8.453,28.216-21.252,38.173-40.167c23.305-44.274-3.602-108.653,39.125-108.653
	c44.05,0,51.313,72.223,37.22,148.82L499.82,208.348L499.82,208.348L499.82,208.348L499.82,208.348z"/>
</svg>
