<?xml version="1.0" encoding="utf-8"?>
<!-- Generator: Adobe Illustrator 24.1.2, SVG Export Plug-In . SVG Version: 6.00 Build 0)  -->
<svg version="1.1" id="Calque_1" xmlns="http://www.w3.org/2000/svg" xmlns:xlink="http://www.w3.org/1999/xlink" x="0px" y="0px"
	 viewBox="0 0 20 22.5" style="enable-background:new 0 0 20 22.5;" xml:space="preserve">
<style type="text/css">
	.st0{fill:#CC0033;}
</style>
<g>
	<g transform="translate(-500.000000, -101.000000)">
		<path class="st0" d="M507.4,102.7c0.8-1.4,2.6-2,4.1-1.2c0.5,0.3,0.9,0.7,1.2,1.2l0,0l6.6,11.9c0.8,1.4,0.3,3.3-1.2,4.1
			c-0.4,0.2-0.9,0.4-1.5,0.4l0,0h-13.2c-1.7,0-3-1.3-3-3c0-0.5,0.1-1,0.4-1.5l0,0L507.4,102.7z M510.4,103.2c-0.5-0.2-1,0-1.3,0.4
			l0,0l-6.6,11.9c-0.1,0.1-0.1,0.3-0.1,0.5c0,0.6,0.4,1,1,1l0,0h13.2c0.2,0,0.3,0,0.5-0.1c0.5-0.3,0.7-0.9,0.4-1.4l0,0l-6.6-11.9
			c-0.1-0.2-0.2-0.3-0.4-0.4l0,0L510.4,103.2z M510,113c0.6,0,1,0.4,1,1s-0.4,1-1,1s-1-0.4-1-1S509.4,113,510,113z M511,107v5h-2v-5
			H511z"/>
	</g>
</g>
</svg>
